<?xml version="1.0" encoding="UTF-8"?>
<svg version="1.1" xmlns="http://www.w3.org/2000/svg" width="40" height="40">
<path d="M0 0 C13.2 0 26.4 0 40 0 C40 13.2 40 26.4 40 40 C26.8 40 13.6 40 0 40 C0 26.8 0 13.6 0 0 Z " fill="#191919" transform="translate(0,0)"/>
<path d="M0 0 C1.09658936 3.28976808 0.79953138 4.71303767 0 8 C1.32 8 2.64 8 4 8 C2.50923566 11.2826932 0.61379679 13.93077441 -1.625 16.75 C-2.25664062 17.54921875 -2.88828125 18.3484375 -3.5390625 19.171875 C-4.02117188 19.77515625 -4.50328125 20.3784375 -5 21 C-5.33 20.01 -5.66 19.02 -6 18 C-9.96 18 -13.92 18 -18 18 C-18.02685938 15.85423363 -18.04633088 13.70837355 -18.0625 11.5625 C-18.07410156 10.36753906 -18.08570313 9.17257812 -18.09765625 7.94140625 C-18 5 -18 5 -17 4 C-13.43588853 4.05013456 -9.88123552 4.19826168 -6.3203125 4.35546875 C-2.92312374 4.35043745 -2.92312374 4.35043745 -1.0546875 1.98828125 C-0.70664062 1.33214844 -0.35859375 0.67601562 0 0 Z " fill="#262C30" transform="translate(26,6)"/>
<path d="M0 0 C1.09658936 3.28976808 0.79953138 4.71303767 0 8 C1.32 8 2.64 8 4 8 C2.50923566 11.2826932 0.61379679 13.93077441 -1.625 16.75 C-2.25664062 17.54921875 -2.88828125 18.3484375 -3.5390625 19.171875 C-4.02117188 19.77515625 -4.50328125 20.3784375 -5 21 C-6.25541557 17.23375329 -5.37061958 15.62811066 -4 12 C-5.32 11.67 -6.64 11.34 -8 11 C-5.36 7.37 -2.72 3.74 0 0 Z " fill="#EBB928" transform="translate(26,6)"/>
<path d="M0 0 C2 1 2 1 3.125 3.375 C4 6 4 6 4 9 C4.99 9 5.98 9 7 9 C7.33 7.68 7.66 6.36 8 5 C9.32 5 10.64 5 12 5 C11.67 6.98 11.34 8.96 11 11 C9.18706911 10.85962479 7.3746557 10.71255111 5.5625 10.5625 C4.04849609 10.44068359 4.04849609 10.44068359 2.50390625 10.31640625 C-0 10 -0 10 -1 9 C-1.1328125 7.1875 -1.1328125 7.1875 -1.125 5 C-1.12757812 4.278125 -1.13015625 3.55625 -1.1328125 2.8125 C-1 1 -1 1 0 0 Z " fill="#131413" transform="translate(10,13)"/>
<path d="M0 0 C1.98 0.66 3.96 1.32 6 2 C6 6.29 6 10.58 6 15 C3.69 15 1.38 15 -1 15 C-1 14.67 -1 14.34 -1 14 C0.65 13.67 2.3 13.34 4 13 C4 10.69 4 8.38 4 6 C2.68 5.67 1.36 5.34 0 5 C0 3.35 0 1.7 0 0 Z " fill="#292D34" transform="translate(26,9)"/>
<path d="M0 0 C0.99 0 1.98 0 3 0 C3.66 1.32 4.32 2.64 5 4 C5.33 2.68 5.66 1.36 6 0 C6.99 0 7.98 0 9 0 C8.01 2.97 7.02 5.94 6 9 C5.01 9 4.02 9 3 9 C2.01 6.03 1.02 3.06 0 0 Z " fill="#1EA654" transform="translate(11,13)"/>
</svg>
